# xmcd
#
# Track frame offsets: 
#        150
#        3563
#        31620
#        72218
#        97385
#        131039
#        171841
#        215395
#        238468
#        268880
#        296951
#
# Disc length: 4377 seconds
#
# Revision: 0
# Processed by: cddbd v1.5.2PL0 Copyright (c) Steve Scherf et al.
# Submitted via: ExactAudioCopy v1.3
#
DISCID=af11170b
DTITLE=Murali Coryell - Live
DYEAR=2012
DGENRE=Funky Blues
TTITLE0=Introduction To In The Room With Jimi
TTITLE1=In The Room With Jimi
TTITLE2=I Can't Give You Up
TTITLE3=I Could've Had You
TTITLE4=Softly Let Me Kiss Your Lips
TTITLE5=Sugar Lips
TTITLE6=Love Her With A Feeling
TTITLE7=Music Sets You Free
TTITLE8=What's Going On
TTITLE9=The Blues Is Taking Its Place
TTITLE10=Closer To You Baby
EXTD=
EXTT0=
EXTT1=
EXTT2=
EXTT3=
EXTT4=
EXTT5=
EXTT6=
EXTT7=
EXTT8=
EXTT9=
EXTT10=
PLAYORDER=
